<svg xmlns="http://www.w3.org/2000/svg" viewBox="0 0 600 300" width="600" height="300" role="img" aria-label="Log-log plot of word frequency against rank in my commit messages, fitted exponent 0.73 against a 1/rank reference line">
<style>
text{font-family:ui-monospace,SFMono-Regular,Menlo,monospace;fill:#1f2328}
.grid{stroke:#1f2328;stroke-width:1;opacity:.12}
.dot{fill:#1f2328}
.ideal{stroke:#1f2328;stroke-width:1.25;stroke-dasharray:4 4;fill:none;opacity:.3}
.fit{stroke:#1f2328;stroke-width:1.75;fill:none;opacity:.9}
.tick{font-size:10px;opacity:.45}
.lbl{font-size:10.5px;opacity:.85}
.note{font-size:10px;opacity:.4}
.note-fit{font-size:10.5px;opacity:.75}
@media (prefers-color-scheme:dark){
text{fill:#e6edf3}.grid,.ideal,.fit{stroke:#e6edf3}.dot{fill:#e6edf3}}
.dot{opacity:0;animation:rise .5s ease-out forwards}
.once{animation-name:riseOnce}
@keyframes rise{from{opacity:0;transform:translate(0,7px)}to{opacity:.55;transform:translate(0,0)}}
@keyframes riseOnce{from{opacity:0;transform:translate(0,7px)}to{opacity:.2;transform:translate(0,0)}}
.b1{animation-delay:0.075s}.b2{animation-delay:0.150s}.b3{animation-delay:0.225s}.b4{animation-delay:0.300s}.b5{animation-delay:0.375s}.b6{animation-delay:0.450s}.b7{animation-delay:0.525s}.b8{animation-delay:0.600s}.b9{animation-delay:0.675s}.b10{animation-delay:0.750s}.b11{animation-delay:0.825s}
.ideal,.fit{stroke-dashoffset:0;animation:draw 1.1s .55s ease-out backwards}
@keyframes draw{from{stroke-dashoffset:842}to{stroke-dashoffset:0}}
.fit{stroke-dasharray:842}
@media (prefers-reduced-motion:reduce){
.dot{opacity:.55;animation:none}.once{opacity:.2}
.ideal,.fit{animation:none}.fit{stroke-dasharray:none}}
</style>
<line class="grid" x1="52.0" y1="28" x2="52.0" y2="278"/>
<line class="grid" x1="238.0" y1="28" x2="238.0" y2="278"/>
<line class="grid" x1="424.1" y1="28" x2="424.1" y2="278"/>
<line class="grid" x1="52" y1="278.0" x2="578" y2="278.0"/>
<text class="tick" x="44" y="281.5" text-anchor="end">1</text>
<line class="grid" x1="52" y1="154.2" x2="578" y2="154.2"/>
<text class="tick" x="44" y="157.7" text-anchor="end">10</text>
<line class="grid" x1="52" y1="30.4" x2="578" y2="30.4"/>
<text class="tick" x="44" y="33.9" text-anchor="end">100</text>
<path class="ideal" d="M52.0 36.7 L414.7 278.0"/>
<path class="fit" d="M52.0 38.3 L543.6 278.0"/>
<text class="note" x="411.3" y="267.3" text-anchor="end" transform="rotate(33.64 411.3 267.3)">1/rank</text>
<text class="note-fit" x="536.8" y="266.9" text-anchor="end" transform="rotate(25.99 536.8 266.9)">&#945; = 0.73</text>
<circle class="dot b0" cx="52.0" cy="36.7" r="2.1"/>
<circle class="dot b0" cx="108.0" cy="68.8" r="2.1"/>
<circle class="dot b0" cx="140.8" cy="93.4" r="2.1"/>
<circle class="dot b0" cx="164.0" cy="97.0" r="2.1"/>
<circle class="dot b0" cx="182.0" cy="104.9" r="2.1"/>
<circle class="dot b0" cx="196.8" cy="109.4" r="2.1"/>
<circle class="dot b0" cx="209.2" cy="111.8" r="2.1"/>
<circle class="dot b0" cx="220.0" cy="114.3" r="2.1"/>
<circle class="dot b0" cx="229.5" cy="116.9" r="2.1"/>
<circle class="dot b0" cx="238.0" cy="122.6" r="2.1"/>
<circle class="dot b0" cx="245.7" cy="128.9" r="2.1"/>
<circle class="dot b0" cx="252.8" cy="136.1" r="2.1"/>
<circle class="dot b0" cx="259.2" cy="149.1" r="2.1"/>
<circle class="dot b0" cx="265.2" cy="154.2" r="2.1"/>
<circle class="dot b0" cx="270.8" cy="154.2" r="2.1"/>
<circle class="dot b0" cx="276.0" cy="154.2" r="2.1"/>
<circle class="dot b0" cx="280.9" cy="154.2" r="2.1"/>
<circle class="dot b0" cx="285.5" cy="154.2" r="2.1"/>
<circle class="dot b0" cx="289.9" cy="159.9" r="2.1"/>
<circle class="dot b0" cx="294.0" cy="159.9" r="2.1"/>
<circle class="dot b0" cx="298.0" cy="159.9" r="2.1"/>
<circle class="dot b0" cx="301.7" cy="159.9" r="2.1"/>
<circle class="dot b0" cx="305.3" cy="159.9" r="2.1"/>
<circle class="dot b0" cx="308.8" cy="159.9" r="2.1"/>
<circle class="dot b0" cx="312.1" cy="159.9" r="2.1"/>
<circle class="dot b0" cx="315.2" cy="166.2" r="2.1"/>
<circle class="dot b0" cx="318.3" cy="166.2" r="2.1"/>
<circle class="dot b0" cx="321.2" cy="166.2" r="2.1"/>
<circle class="dot b0" cx="324.1" cy="173.4" r="2.1"/>
<circle class="dot b0" cx="326.8" cy="173.4" r="2.1"/>
<circle class="dot b0" cx="329.4" cy="173.4" r="2.1"/>
<circle class="dot b0" cx="332.0" cy="173.4" r="2.1"/>
<circle class="dot b0" cx="334.5" cy="173.4" r="2.1"/>
<circle class="dot b0" cx="336.9" cy="173.4" r="2.1"/>
<circle class="dot b0" cx="339.2" cy="173.4" r="2.1"/>
<circle class="dot b0" cx="341.5" cy="173.4" r="2.1"/>
<circle class="dot b0" cx="343.7" cy="181.7" r="2.1"/>
<circle class="dot b0" cx="345.9" cy="181.7" r="2.1"/>
<circle class="dot b0" cx="348.0" cy="181.7" r="2.1"/>
<circle class="dot b0" cx="350.0" cy="181.7" r="2.1"/>
<circle class="dot b0" cx="352.0" cy="181.7" r="2.1"/>
<circle class="dot b0" cx="354.0" cy="181.7" r="2.1"/>
<circle class="dot b0" cx="355.9" cy="181.7" r="2.1"/>
<circle class="dot b0" cx="357.7" cy="181.7" r="2.1"/>
<circle class="dot b0" cx="359.6" cy="191.5" r="2.1"/>
<circle class="dot b0" cx="361.3" cy="191.5" r="2.1"/>
<circle class="dot b0" cx="363.1" cy="191.5" r="2.1"/>
<circle class="dot b0" cx="364.8" cy="191.5" r="2.1"/>
<circle class="dot b0" cx="366.4" cy="191.5" r="2.1"/>
<circle class="dot b0" cx="368.1" cy="191.5" r="2.1"/>
<circle class="dot b0" cx="369.7" cy="191.5" r="2.1"/>
<circle class="dot b0" cx="371.2" cy="191.5" r="2.1"/>
<circle class="dot b1" cx="372.8" cy="191.5" r="2.1"/>
<circle class="dot b1" cx="374.3" cy="191.5" r="2.1"/>
<circle class="dot b1" cx="375.8" cy="191.5" r="2.1"/>
<circle class="dot b1" cx="377.2" cy="191.5" r="2.1"/>
<circle class="dot b1" cx="378.7" cy="191.5" r="2.1"/>
<circle class="dot b1" cx="380.1" cy="191.5" r="2.1"/>
<circle class="dot b1" cx="381.4" cy="191.5" r="2.1"/>
<circle class="dot b1" cx="382.8" cy="191.5" r="2.1"/>
<circle class="dot b1" cx="384.1" cy="191.5" r="2.1"/>
<circle class="dot b1" cx="385.4" cy="191.5" r="2.1"/>
<circle class="dot b1" cx="386.7" cy="191.5" r="2.1"/>
<circle class="dot b1" cx="388.0" cy="191.5" r="2.1"/>
<circle class="dot b1" cx="389.3" cy="191.5" r="2.1"/>
<circle class="dot b1" cx="390.5" cy="191.5" r="2.1"/>
<circle class="dot b1" cx="391.7" cy="203.5" r="2.1"/>
<circle class="dot b1" cx="392.9" cy="203.5" r="2.1"/>
<circle class="dot b1" cx="394.1" cy="203.5" r="2.1"/>
<circle class="dot b1" cx="395.2" cy="203.5" r="2.1"/>
<circle class="dot b1" cx="396.4" cy="203.5" r="2.1"/>
<circle class="dot b1" cx="397.5" cy="203.5" r="2.1"/>
<circle class="dot b1" cx="398.6" cy="203.5" r="2.1"/>
<circle class="dot b1" cx="399.7" cy="203.5" r="2.1"/>
<circle class="dot b1" cx="400.8" cy="203.5" r="2.1"/>
<circle class="dot b1" cx="401.9" cy="203.5" r="2.1"/>
<circle class="dot b1" cx="402.9" cy="203.5" r="2.1"/>
<circle class="dot b1" cx="404.0" cy="203.5" r="2.1"/>
<circle class="dot b1" cx="405.0" cy="203.5" r="2.1"/>
<circle class="dot b1" cx="406.0" cy="203.5" r="2.1"/>
<circle class="dot b1" cx="407.0" cy="203.5" r="2.1"/>
<circle class="dot b1" cx="408.0" cy="203.5" r="2.1"/>
<circle class="dot b1" cx="409.0" cy="203.5" r="2.1"/>
<circle class="dot b1" cx="410.0" cy="203.5" r="2.1"/>
<circle class="dot b1" cx="410.9" cy="203.5" r="2.1"/>
<circle class="dot b1" cx="411.9" cy="203.5" r="2.1"/>
<circle class="dot b1" cx="412.8" cy="203.5" r="2.1"/>
<circle class="dot b1" cx="413.7" cy="203.5" r="2.1"/>
<circle class="dot b1" cx="414.7" cy="203.5" r="2.1"/>
<circle class="dot b1" cx="415.6" cy="203.5" r="2.1"/>
<circle class="dot b1" cx="416.4" cy="203.5" r="2.1"/>
<circle class="dot b1" cx="417.3" cy="203.5" r="2.1"/>
<circle class="dot b1" cx="418.2" cy="203.5" r="2.1"/>
<circle class="dot b1" cx="419.1" cy="203.5" r="2.1"/>
<circle class="dot b1" cx="419.9" cy="203.5" r="2.1"/>
<circle class="dot b1" cx="420.8" cy="218.9" r="2.1"/>
<circle class="dot b1" cx="421.6" cy="218.9" r="2.1"/>
<circle class="dot b1" cx="422.4" cy="218.9" r="2.1"/>
<circle class="dot b1" cx="423.3" cy="218.9" r="2.1"/>
<circle class="dot b1" cx="424.1" cy="218.9" r="2.1"/>
<circle class="dot b1" cx="424.9" cy="218.9" r="2.1"/>
<circle class="dot b1" cx="425.7" cy="218.9" r="2.1"/>
<circle class="dot b1" cx="426.5" cy="218.9" r="2.1"/>
<circle class="dot b2" cx="427.2" cy="218.9" r="2.1"/>
<circle class="dot b2" cx="428.0" cy="218.9" r="2.1"/>
<circle class="dot b2" cx="428.8" cy="218.9" r="2.1"/>
<circle class="dot b2" cx="429.5" cy="218.9" r="2.1"/>
<circle class="dot b2" cx="430.3" cy="218.9" r="2.1"/>
<circle class="dot b2" cx="431.0" cy="218.9" r="2.1"/>
<circle class="dot b2" cx="431.8" cy="218.9" r="2.1"/>
<circle class="dot b2" cx="432.5" cy="218.9" r="2.1"/>
<circle class="dot b2" cx="433.2" cy="218.9" r="2.1"/>
<circle class="dot b2" cx="433.9" cy="218.9" r="2.1"/>
<circle class="dot b2" cx="434.7" cy="218.9" r="2.1"/>
<circle class="dot b2" cx="435.4" cy="218.9" r="2.1"/>
<circle class="dot b2" cx="436.1" cy="218.9" r="2.1"/>
<circle class="dot b2" cx="436.8" cy="218.9" r="2.1"/>
<circle class="dot b2" cx="437.4" cy="218.9" r="2.1"/>
<circle class="dot b2" cx="438.1" cy="218.9" r="2.1"/>
<circle class="dot b2" cx="438.8" cy="218.9" r="2.1"/>
<circle class="dot b2" cx="439.5" cy="218.9" r="2.1"/>
<circle class="dot b2" cx="440.1" cy="218.9" r="2.1"/>
<circle class="dot b2" cx="440.8" cy="218.9" r="2.1"/>
<circle class="dot b2" cx="441.4" cy="218.9" r="2.1"/>
<circle class="dot b2" cx="442.1" cy="218.9" r="2.1"/>
<circle class="dot b2" cx="442.7" cy="218.9" r="2.1"/>
<circle class="dot b2" cx="443.4" cy="218.9" r="2.1"/>
<circle class="dot b2" cx="444.0" cy="218.9" r="2.1"/>
<circle class="dot b2" cx="444.6" cy="218.9" r="2.1"/>
<circle class="dot b2" cx="445.3" cy="218.9" r="2.1"/>
<circle class="dot b2" cx="445.9" cy="218.9" r="2.1"/>
<circle class="dot b2" cx="446.5" cy="218.9" r="2.1"/>
<circle class="dot b2" cx="447.1" cy="218.9" r="2.1"/>
<circle class="dot b2" cx="447.7" cy="218.9" r="2.1"/>
<circle class="dot b2" cx="448.3" cy="218.9" r="2.1"/>
<circle class="dot b2" cx="448.9" cy="218.9" r="2.1"/>
<circle class="dot b2" cx="449.5" cy="218.9" r="2.1"/>
<circle class="dot b2" cx="450.1" cy="218.9" r="2.1"/>
<circle class="dot b2" cx="450.7" cy="218.9" r="2.1"/>
<circle class="dot b2" cx="451.2" cy="218.9" r="2.1"/>
<circle class="dot b2" cx="451.8" cy="240.7" r="2.1"/>
<circle class="dot b2" cx="452.4" cy="240.7" r="2.1"/>
<circle class="dot b2" cx="453.0" cy="240.7" r="2.1"/>
<circle class="dot b2" cx="453.5" cy="240.7" r="2.1"/>
<circle class="dot b2" cx="454.1" cy="240.7" r="2.1"/>
<circle class="dot b2" cx="454.6" cy="240.7" r="2.1"/>
<circle class="dot b2" cx="455.2" cy="240.7" r="2.1"/>
<circle class="dot b2" cx="455.7" cy="240.7" r="2.1"/>
<circle class="dot b2" cx="456.3" cy="240.7" r="2.1"/>
<circle class="dot b2" cx="456.8" cy="240.7" r="2.1"/>
<circle class="dot b2" cx="457.4" cy="240.7" r="2.1"/>
<circle class="dot b2" cx="457.9" cy="240.7" r="2.1"/>
<circle class="dot b2" cx="458.4" cy="240.7" r="2.1"/>
<circle class="dot b2" cx="459.0" cy="240.7" r="2.1"/>
<circle class="dot b3" cx="459.5" cy="240.7" r="2.1"/>
<circle class="dot b3" cx="460.0" cy="240.7" r="2.1"/>
<circle class="dot b3" cx="460.5" cy="240.7" r="2.1"/>
<circle class="dot b3" cx="461.0" cy="240.7" r="2.1"/>
<circle class="dot b3" cx="461.5" cy="240.7" r="2.1"/>
<circle class="dot b3" cx="462.0" cy="240.7" r="2.1"/>
<circle class="dot b3" cx="462.5" cy="240.7" r="2.1"/>
<circle class="dot b3" cx="463.0" cy="240.7" r="2.1"/>
<circle class="dot b3" cx="463.5" cy="240.7" r="2.1"/>
<circle class="dot b3" cx="464.0" cy="240.7" r="2.1"/>
<circle class="dot b3" cx="464.5" cy="240.7" r="2.1"/>
<circle class="dot b3" cx="465.0" cy="240.7" r="2.1"/>
<circle class="dot b3" cx="465.5" cy="240.7" r="2.1"/>
<circle class="dot b3" cx="466.0" cy="240.7" r="2.1"/>
<circle class="dot b3" cx="466.5" cy="240.7" r="2.1"/>
<circle class="dot b3" cx="466.9" cy="240.7" r="2.1"/>
<circle class="dot b3" cx="467.4" cy="240.7" r="2.1"/>
<circle class="dot b3" cx="467.9" cy="240.7" r="2.1"/>
<circle class="dot b3" cx="468.3" cy="240.7" r="2.1"/>
<circle class="dot b3" cx="468.8" cy="240.7" r="2.1"/>
<circle class="dot b3" cx="469.3" cy="240.7" r="2.1"/>
<circle class="dot b3" cx="469.7" cy="240.7" r="2.1"/>
<circle class="dot b3" cx="470.2" cy="240.7" r="2.1"/>
<circle class="dot b3" cx="470.7" cy="240.7" r="2.1"/>
<circle class="dot b3" cx="471.1" cy="240.7" r="2.1"/>
<circle class="dot b3" cx="471.6" cy="240.7" r="2.1"/>
<circle class="dot b3" cx="472.0" cy="240.7" r="2.1"/>
<circle class="dot b3" cx="472.4" cy="240.7" r="2.1"/>
<circle class="dot b3" cx="472.9" cy="240.7" r="2.1"/>
<circle class="dot b3" cx="473.3" cy="240.7" r="2.1"/>
<circle class="dot b3" cx="473.8" cy="240.7" r="2.1"/>
<circle class="dot b3" cx="474.2" cy="240.7" r="2.1"/>
<circle class="dot b3" cx="474.6" cy="240.7" r="2.1"/>
<circle class="dot b3" cx="475.1" cy="240.7" r="2.1"/>
<circle class="dot b3" cx="475.5" cy="240.7" r="2.1"/>
<circle class="dot b3" cx="475.9" cy="240.7" r="2.1"/>
<circle class="dot b3" cx="476.3" cy="240.7" r="2.1"/>
<circle class="dot b3" cx="476.8" cy="240.7" r="2.1"/>
<circle class="dot b3" cx="477.2" cy="240.7" r="2.1"/>
<circle class="dot b3" cx="477.6" cy="240.7" r="2.1"/>
<circle class="dot b3" cx="478.0" cy="240.7" r="2.1"/>
<circle class="dot b3" cx="478.4" cy="240.7" r="2.1"/>
<circle class="dot b3" cx="478.8" cy="240.7" r="2.1"/>
<circle class="dot b3" cx="479.3" cy="240.7" r="2.1"/>
<circle class="dot b3" cx="479.7" cy="240.7" r="2.1"/>
<circle class="dot b3" cx="480.1" cy="240.7" r="2.1"/>
<circle class="dot b3" cx="480.5" cy="240.7" r="2.1"/>
<circle class="dot b3" cx="480.9" cy="240.7" r="2.1"/>
<circle class="dot b3" cx="481.3" cy="240.7" r="2.1"/>
<circle class="dot b3" cx="481.7" cy="240.7" r="2.1"/>
<circle class="dot b3" cx="482.1" cy="240.7" r="2.1"/>
<circle class="dot b4" cx="482.5" cy="240.7" r="2.1"/>
<circle class="dot b4" cx="482.8" cy="240.7" r="2.1"/>
<circle class="dot b4" cx="483.2" cy="240.7" r="2.1"/>
<circle class="dot b4" cx="483.6" cy="240.7" r="2.1"/>
<circle class="dot b4" cx="484.0" cy="240.7" r="2.1"/>
<circle class="dot b4" cx="484.4" cy="240.7" r="2.1"/>
<circle class="dot b4" cx="484.8" cy="240.7" r="2.1"/>
<circle class="dot b4" cx="485.2" cy="240.7" r="2.1"/>
<circle class="dot b4" cx="485.5" cy="240.7" r="2.1"/>
<circle class="dot b4" cx="485.9" cy="240.7" r="2.1"/>
<circle class="dot b4" cx="486.3" cy="240.7" r="2.1"/>
<circle class="dot b4" cx="486.7" cy="240.7" r="2.1"/>
<circle class="dot b4" cx="487.0" cy="240.7" r="2.1"/>
<circle class="dot b4" cx="487.4" cy="240.7" r="2.1"/>
<circle class="dot b4" cx="487.8" cy="240.7" r="2.1"/>
<circle class="dot b4" cx="488.1" cy="240.7" r="2.1"/>
<circle class="dot b4" cx="488.5" cy="240.7" r="2.1"/>
<circle class="dot b4" cx="488.9" cy="240.7" r="2.1"/>
<circle class="dot b4" cx="489.2" cy="240.7" r="2.1"/>
<circle class="dot b4" cx="489.6" cy="240.7" r="2.1"/>
<circle class="dot b4" cx="489.9" cy="240.7" r="2.1"/>
<circle class="dot b4" cx="490.3" cy="240.7" r="2.1"/>
<circle class="dot b4" cx="490.7" cy="240.7" r="2.1"/>
<circle class="dot b4" cx="491.0" cy="240.7" r="2.1"/>
<circle class="dot b4" cx="491.4" cy="240.7" r="2.1"/>
<circle class="dot b4" cx="491.7" cy="240.7" r="2.1"/>
<circle class="dot b4" cx="492.1" cy="240.7" r="2.1"/>
<circle class="dot b4" cx="492.4" cy="240.7" r="2.1"/>
<circle class="dot b4" cx="492.8" cy="240.7" r="2.1"/>
<circle class="dot b4" cx="493.1" cy="240.7" r="2.1"/>
<circle class="dot b4" cx="493.4" cy="240.7" r="2.1"/>
<circle class="dot once b4" cx="493.8" cy="278.0" r="1.6"/>
<circle class="dot once b4" cx="494.1" cy="278.0" r="1.6"/>
<circle class="dot once b4" cx="494.5" cy="278.0" r="1.6"/>
<circle class="dot once b4" cx="494.8" cy="278.0" r="1.6"/>
<circle class="dot once b4" cx="495.1" cy="278.0" r="1.6"/>
<circle class="dot once b4" cx="495.5" cy="278.0" r="1.6"/>
<circle class="dot once b4" cx="495.8" cy="278.0" r="1.6"/>
<circle class="dot once b4" cx="496.1" cy="278.0" r="1.6"/>
<circle class="dot once b4" cx="496.5" cy="278.0" r="1.6"/>
<circle class="dot once b4" cx="496.8" cy="278.0" r="1.6"/>
<circle class="dot once b4" cx="497.1" cy="278.0" r="1.6"/>
<circle class="dot once b4" cx="497.4" cy="278.0" r="1.6"/>
<circle class="dot once b4" cx="497.8" cy="278.0" r="1.6"/>
<circle class="dot once b4" cx="498.1" cy="278.0" r="1.6"/>
<circle class="dot once b4" cx="498.4" cy="278.0" r="1.6"/>
<circle class="dot once b4" cx="498.7" cy="278.0" r="1.6"/>
<circle class="dot once b4" cx="499.1" cy="278.0" r="1.6"/>
<circle class="dot once b4" cx="499.4" cy="278.0" r="1.6"/>
<circle class="dot once b4" cx="499.7" cy="278.0" r="1.6"/>
<circle class="dot once b4" cx="500.0" cy="278.0" r="1.6"/>
<circle class="dot once b5" cx="500.3" cy="278.0" r="1.6"/>
<circle class="dot once b5" cx="500.6" cy="278.0" r="1.6"/>
<circle class="dot once b5" cx="501.0" cy="278.0" r="1.6"/>
<circle class="dot once b5" cx="501.3" cy="278.0" r="1.6"/>
<circle class="dot once b5" cx="501.6" cy="278.0" r="1.6"/>
<circle class="dot once b5" cx="501.9" cy="278.0" r="1.6"/>
<circle class="dot once b5" cx="502.2" cy="278.0" r="1.6"/>
<circle class="dot once b5" cx="502.5" cy="278.0" r="1.6"/>
<circle class="dot once b5" cx="502.8" cy="278.0" r="1.6"/>
<circle class="dot once b5" cx="503.1" cy="278.0" r="1.6"/>
<circle class="dot once b5" cx="503.4" cy="278.0" r="1.6"/>
<circle class="dot once b5" cx="503.7" cy="278.0" r="1.6"/>
<circle class="dot once b5" cx="504.0" cy="278.0" r="1.6"/>
<circle class="dot once b5" cx="504.3" cy="278.0" r="1.6"/>
<circle class="dot once b5" cx="504.6" cy="278.0" r="1.6"/>
<circle class="dot once b5" cx="504.9" cy="278.0" r="1.6"/>
<circle class="dot once b5" cx="505.2" cy="278.0" r="1.6"/>
<circle class="dot once b5" cx="505.5" cy="278.0" r="1.6"/>
<circle class="dot once b5" cx="505.8" cy="278.0" r="1.6"/>
<circle class="dot once b5" cx="506.1" cy="278.0" r="1.6"/>
<circle class="dot once b5" cx="506.4" cy="278.0" r="1.6"/>
<circle class="dot once b5" cx="506.7" cy="278.0" r="1.6"/>
<circle class="dot once b5" cx="507.0" cy="278.0" r="1.6"/>
<circle class="dot once b5" cx="507.3" cy="278.0" r="1.6"/>
<circle class="dot once b5" cx="507.5" cy="278.0" r="1.6"/>
<circle class="dot once b5" cx="507.8" cy="278.0" r="1.6"/>
<circle class="dot once b5" cx="508.1" cy="278.0" r="1.6"/>
<circle class="dot once b5" cx="508.4" cy="278.0" r="1.6"/>
<circle class="dot once b5" cx="508.7" cy="278.0" r="1.6"/>
<circle class="dot once b5" cx="509.0" cy="278.0" r="1.6"/>
<circle class="dot once b5" cx="509.2" cy="278.0" r="1.6"/>
<circle class="dot once b5" cx="509.5" cy="278.0" r="1.6"/>
<circle class="dot once b5" cx="509.8" cy="278.0" r="1.6"/>
<circle class="dot once b5" cx="510.1" cy="278.0" r="1.6"/>
<circle class="dot once b5" cx="510.4" cy="278.0" r="1.6"/>
<circle class="dot once b5" cx="510.6" cy="278.0" r="1.6"/>
<circle class="dot once b5" cx="510.9" cy="278.0" r="1.6"/>
<circle class="dot once b5" cx="511.2" cy="278.0" r="1.6"/>
<circle class="dot once b5" cx="511.5" cy="278.0" r="1.6"/>
<circle class="dot once b5" cx="511.7" cy="278.0" r="1.6"/>
<circle class="dot once b5" cx="512.0" cy="278.0" r="1.6"/>
<circle class="dot once b5" cx="512.3" cy="278.0" r="1.6"/>
<circle class="dot once b5" cx="512.6" cy="278.0" r="1.6"/>
<circle class="dot once b5" cx="512.8" cy="278.0" r="1.6"/>
<circle class="dot once b5" cx="513.1" cy="278.0" r="1.6"/>
<circle class="dot once b5" cx="513.4" cy="278.0" r="1.6"/>
<circle class="dot once b5" cx="513.6" cy="278.0" r="1.6"/>
<circle class="dot once b5" cx="513.9" cy="278.0" r="1.6"/>
<circle class="dot once b5" cx="514.2" cy="278.0" r="1.6"/>
<circle class="dot once b5" cx="514.4" cy="278.0" r="1.6"/>
<circle class="dot once b5" cx="514.7" cy="278.0" r="1.6"/>
<circle class="dot once b6" cx="515.0" cy="278.0" r="1.6"/>
<circle class="dot once b6" cx="515.2" cy="278.0" r="1.6"/>
<circle class="dot once b6" cx="515.5" cy="278.0" r="1.6"/>
<circle class="dot once b6" cx="515.7" cy="278.0" r="1.6"/>
<circle class="dot once b6" cx="516.0" cy="278.0" r="1.6"/>
<circle class="dot once b6" cx="516.3" cy="278.0" r="1.6"/>
<circle class="dot once b6" cx="516.5" cy="278.0" r="1.6"/>
<circle class="dot once b6" cx="516.8" cy="278.0" r="1.6"/>
<circle class="dot once b6" cx="517.0" cy="278.0" r="1.6"/>
<circle class="dot once b6" cx="517.3" cy="278.0" r="1.6"/>
<circle class="dot once b6" cx="517.5" cy="278.0" r="1.6"/>
<circle class="dot once b6" cx="517.8" cy="278.0" r="1.6"/>
<circle class="dot once b6" cx="518.0" cy="278.0" r="1.6"/>
<circle class="dot once b6" cx="518.3" cy="278.0" r="1.6"/>
<circle class="dot once b6" cx="518.5" cy="278.0" r="1.6"/>
<circle class="dot once b6" cx="518.8" cy="278.0" r="1.6"/>
<circle class="dot once b6" cx="519.0" cy="278.0" r="1.6"/>
<circle class="dot once b6" cx="519.3" cy="278.0" r="1.6"/>
<circle class="dot once b6" cx="519.5" cy="278.0" r="1.6"/>
<circle class="dot once b6" cx="519.8" cy="278.0" r="1.6"/>
<circle class="dot once b6" cx="520.0" cy="278.0" r="1.6"/>
<circle class="dot once b6" cx="520.3" cy="278.0" r="1.6"/>
<circle class="dot once b6" cx="520.5" cy="278.0" r="1.6"/>
<circle class="dot once b6" cx="520.8" cy="278.0" r="1.6"/>
<circle class="dot once b6" cx="521.0" cy="278.0" r="1.6"/>
<circle class="dot once b6" cx="521.3" cy="278.0" r="1.6"/>
<circle class="dot once b6" cx="521.5" cy="278.0" r="1.6"/>
<circle class="dot once b6" cx="521.7" cy="278.0" r="1.6"/>
<circle class="dot once b6" cx="522.0" cy="278.0" r="1.6"/>
<circle class="dot once b6" cx="522.2" cy="278.0" r="1.6"/>
<circle class="dot once b6" cx="522.5" cy="278.0" r="1.6"/>
<circle class="dot once b6" cx="522.7" cy="278.0" r="1.6"/>
<circle class="dot once b6" cx="522.9" cy="278.0" r="1.6"/>
<circle class="dot once b6" cx="523.2" cy="278.0" r="1.6"/>
<circle class="dot once b6" cx="523.4" cy="278.0" r="1.6"/>
<circle class="dot once b6" cx="523.6" cy="278.0" r="1.6"/>
<circle class="dot once b6" cx="523.9" cy="278.0" r="1.6"/>
<circle class="dot once b6" cx="524.1" cy="278.0" r="1.6"/>
<circle class="dot once b6" cx="524.4" cy="278.0" r="1.6"/>
<circle class="dot once b6" cx="524.6" cy="278.0" r="1.6"/>
<circle class="dot once b6" cx="524.8" cy="278.0" r="1.6"/>
<circle class="dot once b6" cx="525.0" cy="278.0" r="1.6"/>
<circle class="dot once b6" cx="525.3" cy="278.0" r="1.6"/>
<circle class="dot once b6" cx="525.5" cy="278.0" r="1.6"/>
<circle class="dot once b6" cx="525.7" cy="278.0" r="1.6"/>
<circle class="dot once b6" cx="526.0" cy="278.0" r="1.6"/>
<circle class="dot once b6" cx="526.2" cy="278.0" r="1.6"/>
<circle class="dot once b6" cx="526.4" cy="278.0" r="1.6"/>
<circle class="dot once b6" cx="526.7" cy="278.0" r="1.6"/>
<circle class="dot once b6" cx="526.9" cy="278.0" r="1.6"/>
<circle class="dot once b6" cx="527.1" cy="278.0" r="1.6"/>
<circle class="dot once b7" cx="527.3" cy="278.0" r="1.6"/>
<circle class="dot once b7" cx="527.6" cy="278.0" r="1.6"/>
<circle class="dot once b7" cx="527.8" cy="278.0" r="1.6"/>
<circle class="dot once b7" cx="528.0" cy="278.0" r="1.6"/>
<circle class="dot once b7" cx="528.2" cy="278.0" r="1.6"/>
<circle class="dot once b7" cx="528.4" cy="278.0" r="1.6"/>
<circle class="dot once b7" cx="528.7" cy="278.0" r="1.6"/>
<circle class="dot once b7" cx="528.9" cy="278.0" r="1.6"/>
<circle class="dot once b7" cx="529.1" cy="278.0" r="1.6"/>
<circle class="dot once b7" cx="529.3" cy="278.0" r="1.6"/>
<circle class="dot once b7" cx="529.6" cy="278.0" r="1.6"/>
<circle class="dot once b7" cx="529.8" cy="278.0" r="1.6"/>
<circle class="dot once b7" cx="530.0" cy="278.0" r="1.6"/>
<circle class="dot once b7" cx="530.2" cy="278.0" r="1.6"/>
<circle class="dot once b7" cx="530.4" cy="278.0" r="1.6"/>
<circle class="dot once b7" cx="530.6" cy="278.0" r="1.6"/>
<circle class="dot once b7" cx="530.9" cy="278.0" r="1.6"/>
<circle class="dot once b7" cx="531.1" cy="278.0" r="1.6"/>
<circle class="dot once b7" cx="531.3" cy="278.0" r="1.6"/>
<circle class="dot once b7" cx="531.5" cy="278.0" r="1.6"/>
<circle class="dot once b7" cx="531.7" cy="278.0" r="1.6"/>
<circle class="dot once b7" cx="531.9" cy="278.0" r="1.6"/>
<circle class="dot once b7" cx="532.1" cy="278.0" r="1.6"/>
<circle class="dot once b7" cx="532.3" cy="278.0" r="1.6"/>
<circle class="dot once b7" cx="532.6" cy="278.0" r="1.6"/>
<circle class="dot once b7" cx="532.8" cy="278.0" r="1.6"/>
<circle class="dot once b7" cx="533.0" cy="278.0" r="1.6"/>
<circle class="dot once b7" cx="533.2" cy="278.0" r="1.6"/>
<circle class="dot once b7" cx="533.4" cy="278.0" r="1.6"/>
<circle class="dot once b7" cx="533.6" cy="278.0" r="1.6"/>
<circle class="dot once b7" cx="533.8" cy="278.0" r="1.6"/>
<circle class="dot once b7" cx="534.0" cy="278.0" r="1.6"/>
<circle class="dot once b7" cx="534.2" cy="278.0" r="1.6"/>
<circle class="dot once b7" cx="534.4" cy="278.0" r="1.6"/>
<circle class="dot once b7" cx="534.6" cy="278.0" r="1.6"/>
<circle class="dot once b7" cx="534.8" cy="278.0" r="1.6"/>
<circle class="dot once b7" cx="535.1" cy="278.0" r="1.6"/>
<circle class="dot once b7" cx="535.3" cy="278.0" r="1.6"/>
<circle class="dot once b7" cx="535.5" cy="278.0" r="1.6"/>
<circle class="dot once b7" cx="535.7" cy="278.0" r="1.6"/>
<circle class="dot once b7" cx="535.9" cy="278.0" r="1.6"/>
<circle class="dot once b7" cx="536.1" cy="278.0" r="1.6"/>
<circle class="dot once b7" cx="536.3" cy="278.0" r="1.6"/>
<circle class="dot once b7" cx="536.5" cy="278.0" r="1.6"/>
<circle class="dot once b7" cx="536.7" cy="278.0" r="1.6"/>
<circle class="dot once b7" cx="536.9" cy="278.0" r="1.6"/>
<circle class="dot once b7" cx="537.1" cy="278.0" r="1.6"/>
<circle class="dot once b7" cx="537.3" cy="278.0" r="1.6"/>
<circle class="dot once b7" cx="537.5" cy="278.0" r="1.6"/>
<circle class="dot once b7" cx="537.7" cy="278.0" r="1.6"/>
<circle class="dot once b7" cx="537.9" cy="278.0" r="1.6"/>
<circle class="dot once b8" cx="538.1" cy="278.0" r="1.6"/>
<circle class="dot once b8" cx="538.3" cy="278.0" r="1.6"/>
<circle class="dot once b8" cx="538.5" cy="278.0" r="1.6"/>
<circle class="dot once b8" cx="538.7" cy="278.0" r="1.6"/>
<circle class="dot once b8" cx="538.8" cy="278.0" r="1.6"/>
<circle class="dot once b8" cx="539.0" cy="278.0" r="1.6"/>
<circle class="dot once b8" cx="539.2" cy="278.0" r="1.6"/>
<circle class="dot once b8" cx="539.4" cy="278.0" r="1.6"/>
<circle class="dot once b8" cx="539.6" cy="278.0" r="1.6"/>
<circle class="dot once b8" cx="539.8" cy="278.0" r="1.6"/>
<circle class="dot once b8" cx="540.0" cy="278.0" r="1.6"/>
<circle class="dot once b8" cx="540.2" cy="278.0" r="1.6"/>
<circle class="dot once b8" cx="540.4" cy="278.0" r="1.6"/>
<circle class="dot once b8" cx="540.6" cy="278.0" r="1.6"/>
<circle class="dot once b8" cx="540.8" cy="278.0" r="1.6"/>
<circle class="dot once b8" cx="541.0" cy="278.0" r="1.6"/>
<circle class="dot once b8" cx="541.2" cy="278.0" r="1.6"/>
<circle class="dot once b8" cx="541.3" cy="278.0" r="1.6"/>
<circle class="dot once b8" cx="541.5" cy="278.0" r="1.6"/>
<circle class="dot once b8" cx="541.7" cy="278.0" r="1.6"/>
<circle class="dot once b8" cx="541.9" cy="278.0" r="1.6"/>
<circle class="dot once b8" cx="542.1" cy="278.0" r="1.6"/>
<circle class="dot once b8" cx="542.3" cy="278.0" r="1.6"/>
<circle class="dot once b8" cx="542.5" cy="278.0" r="1.6"/>
<circle class="dot once b8" cx="542.7" cy="278.0" r="1.6"/>
<circle class="dot once b8" cx="542.8" cy="278.0" r="1.6"/>
<circle class="dot once b8" cx="543.0" cy="278.0" r="1.6"/>
<circle class="dot once b8" cx="543.2" cy="278.0" r="1.6"/>
<circle class="dot once b8" cx="543.4" cy="278.0" r="1.6"/>
<circle class="dot once b8" cx="543.6" cy="278.0" r="1.6"/>
<circle class="dot once b8" cx="543.8" cy="278.0" r="1.6"/>
<circle class="dot once b8" cx="544.0" cy="278.0" r="1.6"/>
<circle class="dot once b8" cx="544.1" cy="278.0" r="1.6"/>
<circle class="dot once b8" cx="544.3" cy="278.0" r="1.6"/>
<circle class="dot once b8" cx="544.5" cy="278.0" r="1.6"/>
<circle class="dot once b8" cx="544.7" cy="278.0" r="1.6"/>
<circle class="dot once b8" cx="544.9" cy="278.0" r="1.6"/>
<circle class="dot once b8" cx="545.0" cy="278.0" r="1.6"/>
<circle class="dot once b8" cx="545.2" cy="278.0" r="1.6"/>
<circle class="dot once b8" cx="545.4" cy="278.0" r="1.6"/>
<circle class="dot once b8" cx="545.6" cy="278.0" r="1.6"/>
<circle class="dot once b8" cx="545.8" cy="278.0" r="1.6"/>
<circle class="dot once b8" cx="545.9" cy="278.0" r="1.6"/>
<circle class="dot once b8" cx="546.1" cy="278.0" r="1.6"/>
<circle class="dot once b8" cx="546.3" cy="278.0" r="1.6"/>
<circle class="dot once b8" cx="546.5" cy="278.0" r="1.6"/>
<circle class="dot once b8" cx="546.7" cy="278.0" r="1.6"/>
<circle class="dot once b8" cx="546.8" cy="278.0" r="1.6"/>
<circle class="dot once b8" cx="547.0" cy="278.0" r="1.6"/>
<circle class="dot once b8" cx="547.2" cy="278.0" r="1.6"/>
<circle class="dot once b8" cx="547.4" cy="278.0" r="1.6"/>
<circle class="dot once b9" cx="547.5" cy="278.0" r="1.6"/>
<circle class="dot once b9" cx="547.7" cy="278.0" r="1.6"/>
<circle class="dot once b9" cx="547.9" cy="278.0" r="1.6"/>
<circle class="dot once b9" cx="548.1" cy="278.0" r="1.6"/>
<circle class="dot once b9" cx="548.2" cy="278.0" r="1.6"/>
<circle class="dot once b9" cx="548.4" cy="278.0" r="1.6"/>
<circle class="dot once b9" cx="548.6" cy="278.0" r="1.6"/>
<circle class="dot once b9" cx="548.8" cy="278.0" r="1.6"/>
<circle class="dot once b9" cx="548.9" cy="278.0" r="1.6"/>
<circle class="dot once b9" cx="549.1" cy="278.0" r="1.6"/>
<circle class="dot once b9" cx="549.3" cy="278.0" r="1.6"/>
<circle class="dot once b9" cx="549.4" cy="278.0" r="1.6"/>
<circle class="dot once b9" cx="549.6" cy="278.0" r="1.6"/>
<circle class="dot once b9" cx="549.8" cy="278.0" r="1.6"/>
<circle class="dot once b9" cx="550.0" cy="278.0" r="1.6"/>
<circle class="dot once b9" cx="550.1" cy="278.0" r="1.6"/>
<circle class="dot once b9" cx="550.3" cy="278.0" r="1.6"/>
<circle class="dot once b9" cx="550.5" cy="278.0" r="1.6"/>
<circle class="dot once b9" cx="550.6" cy="278.0" r="1.6"/>
<circle class="dot once b9" cx="550.8" cy="278.0" r="1.6"/>
<circle class="dot once b9" cx="551.0" cy="278.0" r="1.6"/>
<circle class="dot once b9" cx="551.1" cy="278.0" r="1.6"/>
<circle class="dot once b9" cx="551.3" cy="278.0" r="1.6"/>
<circle class="dot once b9" cx="551.5" cy="278.0" r="1.6"/>
<circle class="dot once b9" cx="551.6" cy="278.0" r="1.6"/>
<circle class="dot once b9" cx="551.8" cy="278.0" r="1.6"/>
<circle class="dot once b9" cx="552.0" cy="278.0" r="1.6"/>
<circle class="dot once b9" cx="552.1" cy="278.0" r="1.6"/>
<circle class="dot once b9" cx="552.3" cy="278.0" r="1.6"/>
<circle class="dot once b9" cx="552.5" cy="278.0" r="1.6"/>
<circle class="dot once b9" cx="552.6" cy="278.0" r="1.6"/>
<circle class="dot once b9" cx="552.8" cy="278.0" r="1.6"/>
<circle class="dot once b9" cx="553.0" cy="278.0" r="1.6"/>
<circle class="dot once b9" cx="553.1" cy="278.0" r="1.6"/>
<circle class="dot once b9" cx="553.3" cy="278.0" r="1.6"/>
<circle class="dot once b9" cx="553.4" cy="278.0" r="1.6"/>
<circle class="dot once b9" cx="553.6" cy="278.0" r="1.6"/>
<circle class="dot once b9" cx="553.8" cy="278.0" r="1.6"/>
<circle class="dot once b9" cx="553.9" cy="278.0" r="1.6"/>
<circle class="dot once b9" cx="554.1" cy="278.0" r="1.6"/>
<circle class="dot once b9" cx="554.3" cy="278.0" r="1.6"/>
<circle class="dot once b9" cx="554.4" cy="278.0" r="1.6"/>
<circle class="dot once b9" cx="554.6" cy="278.0" r="1.6"/>
<circle class="dot once b9" cx="554.7" cy="278.0" r="1.6"/>
<circle class="dot once b9" cx="554.9" cy="278.0" r="1.6"/>
<circle class="dot once b9" cx="555.1" cy="278.0" r="1.6"/>
<circle class="dot once b9" cx="555.2" cy="278.0" r="1.6"/>
<circle class="dot once b9" cx="555.4" cy="278.0" r="1.6"/>
<circle class="dot once b9" cx="555.5" cy="278.0" r="1.6"/>
<circle class="dot once b9" cx="555.7" cy="278.0" r="1.6"/>
<circle class="dot once b9" cx="555.9" cy="278.0" r="1.6"/>
<circle class="dot once b10" cx="556.0" cy="278.0" r="1.6"/>
<circle class="dot once b10" cx="556.2" cy="278.0" r="1.6"/>
<circle class="dot once b10" cx="556.3" cy="278.0" r="1.6"/>
<circle class="dot once b10" cx="556.5" cy="278.0" r="1.6"/>
<circle class="dot once b10" cx="556.6" cy="278.0" r="1.6"/>
<circle class="dot once b10" cx="556.8" cy="278.0" r="1.6"/>
<circle class="dot once b10" cx="557.0" cy="278.0" r="1.6"/>
<circle class="dot once b10" cx="557.1" cy="278.0" r="1.6"/>
<circle class="dot once b10" cx="557.3" cy="278.0" r="1.6"/>
<circle class="dot once b10" cx="557.4" cy="278.0" r="1.6"/>
<circle class="dot once b10" cx="557.6" cy="278.0" r="1.6"/>
<circle class="dot once b10" cx="557.7" cy="278.0" r="1.6"/>
<circle class="dot once b10" cx="557.9" cy="278.0" r="1.6"/>
<circle class="dot once b10" cx="558.0" cy="278.0" r="1.6"/>
<circle class="dot once b10" cx="558.2" cy="278.0" r="1.6"/>
<circle class="dot once b10" cx="558.3" cy="278.0" r="1.6"/>
<circle class="dot once b10" cx="558.5" cy="278.0" r="1.6"/>
<circle class="dot once b10" cx="558.7" cy="278.0" r="1.6"/>
<circle class="dot once b10" cx="558.8" cy="278.0" r="1.6"/>
<circle class="dot once b10" cx="559.0" cy="278.0" r="1.6"/>
<circle class="dot once b10" cx="559.1" cy="278.0" r="1.6"/>
<circle class="dot once b10" cx="559.3" cy="278.0" r="1.6"/>
<circle class="dot once b10" cx="559.4" cy="278.0" r="1.6"/>
<circle class="dot once b10" cx="559.6" cy="278.0" r="1.6"/>
<circle class="dot once b10" cx="559.7" cy="278.0" r="1.6"/>
<circle class="dot once b10" cx="559.9" cy="278.0" r="1.6"/>
<circle class="dot once b10" cx="560.0" cy="278.0" r="1.6"/>
<circle class="dot once b10" cx="560.2" cy="278.0" r="1.6"/>
<circle class="dot once b10" cx="560.3" cy="278.0" r="1.6"/>
<circle class="dot once b10" cx="560.5" cy="278.0" r="1.6"/>
<circle class="dot once b10" cx="560.6" cy="278.0" r="1.6"/>
<circle class="dot once b10" cx="560.8" cy="278.0" r="1.6"/>
<circle class="dot once b10" cx="560.9" cy="278.0" r="1.6"/>
<circle class="dot once b10" cx="561.1" cy="278.0" r="1.6"/>
<circle class="dot once b10" cx="561.2" cy="278.0" r="1.6"/>
<circle class="dot once b10" cx="561.4" cy="278.0" r="1.6"/>
<circle class="dot once b10" cx="561.5" cy="278.0" r="1.6"/>
<circle class="dot once b10" cx="561.6" cy="278.0" r="1.6"/>
<circle class="dot once b10" cx="561.8" cy="278.0" r="1.6"/>
<circle class="dot once b10" cx="561.9" cy="278.0" r="1.6"/>
<circle class="dot once b10" cx="562.1" cy="278.0" r="1.6"/>
<circle class="dot once b10" cx="562.2" cy="278.0" r="1.6"/>
<circle class="dot once b10" cx="562.4" cy="278.0" r="1.6"/>
<circle class="dot once b10" cx="562.5" cy="278.0" r="1.6"/>
<circle class="dot once b10" cx="562.7" cy="278.0" r="1.6"/>
<circle class="dot once b10" cx="562.8" cy="278.0" r="1.6"/>
<circle class="dot once b10" cx="563.0" cy="278.0" r="1.6"/>
<circle class="dot once b10" cx="563.1" cy="278.0" r="1.6"/>
<circle class="dot once b10" cx="563.3" cy="278.0" r="1.6"/>
<circle class="dot once b10" cx="563.4" cy="278.0" r="1.6"/>
<circle class="dot once b10" cx="563.5" cy="278.0" r="1.6"/>
<circle class="dot once b11" cx="563.7" cy="278.0" r="1.6"/>
<circle class="dot once b11" cx="563.8" cy="278.0" r="1.6"/>
<circle class="dot once b11" cx="564.0" cy="278.0" r="1.6"/>
<circle class="dot once b11" cx="564.1" cy="278.0" r="1.6"/>
<circle class="dot once b11" cx="564.3" cy="278.0" r="1.6"/>
<circle class="dot once b11" cx="564.4" cy="278.0" r="1.6"/>
<circle class="dot once b11" cx="564.5" cy="278.0" r="1.6"/>
<circle class="dot once b11" cx="564.7" cy="278.0" r="1.6"/>
<circle class="dot once b11" cx="564.8" cy="278.0" r="1.6"/>
<circle class="dot once b11" cx="565.0" cy="278.0" r="1.6"/>
<circle class="dot once b11" cx="565.1" cy="278.0" r="1.6"/>
<circle class="dot once b11" cx="565.2" cy="278.0" r="1.6"/>
<circle class="dot once b11" cx="565.4" cy="278.0" r="1.6"/>
<circle class="dot once b11" cx="565.5" cy="278.0" r="1.6"/>
<circle class="dot once b11" cx="565.7" cy="278.0" r="1.6"/>
<circle class="dot once b11" cx="565.8" cy="278.0" r="1.6"/>
<circle class="dot once b11" cx="565.9" cy="278.0" r="1.6"/>
<circle class="dot once b11" cx="566.1" cy="278.0" r="1.6"/>
<circle class="dot once b11" cx="566.2" cy="278.0" r="1.6"/>
<circle class="dot once b11" cx="566.4" cy="278.0" r="1.6"/>
<circle class="dot once b11" cx="566.5" cy="278.0" r="1.6"/>
<circle class="dot once b11" cx="566.6" cy="278.0" r="1.6"/>
<circle class="dot once b11" cx="566.8" cy="278.0" r="1.6"/>
<circle class="dot once b11" cx="566.9" cy="278.0" r="1.6"/>
<circle class="dot once b11" cx="567.1" cy="278.0" r="1.6"/>
<circle class="dot once b11" cx="567.2" cy="278.0" r="1.6"/>
<circle class="dot once b11" cx="567.3" cy="278.0" r="1.6"/>
<circle class="dot once b11" cx="567.5" cy="278.0" r="1.6"/>
<circle class="dot once b11" cx="567.6" cy="278.0" r="1.6"/>
<circle class="dot once b11" cx="567.7" cy="278.0" r="1.6"/>
<circle class="dot once b11" cx="567.9" cy="278.0" r="1.6"/>
<circle class="dot once b11" cx="568.0" cy="278.0" r="1.6"/>
<circle class="dot once b11" cx="568.2" cy="278.0" r="1.6"/>
<circle class="dot once b11" cx="568.3" cy="278.0" r="1.6"/>
<circle class="dot once b11" cx="568.4" cy="278.0" r="1.6"/>
<circle class="dot once b11" cx="568.6" cy="278.0" r="1.6"/>
<circle class="dot once b11" cx="568.7" cy="278.0" r="1.6"/>
<circle class="dot once b11" cx="568.8" cy="278.0" r="1.6"/>
<circle class="dot once b11" cx="569.0" cy="278.0" r="1.6"/>
<circle class="dot once b11" cx="569.1" cy="278.0" r="1.6"/>
<circle class="dot once b11" cx="569.2" cy="278.0" r="1.6"/>
<circle class="dot once b11" cx="569.4" cy="278.0" r="1.6"/>
<circle class="dot once b11" cx="569.5" cy="278.0" r="1.6"/>
<circle class="dot once b11" cx="569.6" cy="278.0" r="1.6"/>
<circle class="dot once b11" cx="569.8" cy="278.0" r="1.6"/>
<circle class="dot once b11" cx="569.9" cy="278.0" r="1.6"/>
<circle class="dot once b11" cx="570.0" cy="278.0" r="1.6"/>
<circle class="dot once b11" cx="570.2" cy="278.0" r="1.6"/>
<circle class="dot once b11" cx="570.3" cy="278.0" r="1.6"/>
<circle class="dot once b11" cx="570.4" cy="278.0" r="1.6"/>
<circle class="dot once b11" cx="570.6" cy="278.0" r="1.6"/>
<text class="lbl" x="59.0" y="30.7">update <tspan class="tick">89</tspan></text>
<text class="lbl" x="115.0" y="62.8">fix <tspan class="tick">49</tspan></text>
<text class="lbl" x="147.8" y="87.4">build <tspan class="tick">31</tspan></text>
<text class="lbl" x="245.0" y="116.6">and <tspan class="tick">18</tspan></text>
</svg>